<?xml version="1.0" encoding="UTF-8"?>
<svg width="32px" height="32px" viewBox="0 0 32 32" version="1.1" xmlns="http://www.w3.org/2000/svg" xmlns:xlink="http://www.w3.org/1999/xlink">
    <title>ic_parse@1x</title>
    <g id="ic_parse" stroke="none" stroke-width="1" fill="none" fill-rule="evenodd">
        <rect id="Rectangle" stroke="#00C3FF" x="1.5" y="1.5" width="29" height="29" rx="5"></rect>
        <g id="λόγος" transform="translate(3.309570, 5.392578)" fill="#00C3FF" fill-rule="nonzero">
            <path d="M1.69921875,1.15722656 C1.59505208,1.14746094 1.47542318,1.14257812 1.34033203,1.14257812 C1.20524089,1.14257812 1.11002604,1.14095052 1.0546875,1.13769531 C0.891927083,1.1311849 0.766601562,1.07177734 0.678710938,0.959472656 C0.590820312,0.847167969 0.546875,0.730794271 0.546875,0.610351562 C0.546875,0.463867188 0.603841146,0.33203125 0.717773438,0.21484375 C0.831705729,0.09765625 0.994466146,0.0390625 1.20605469,0.0390625 C1.46972656,0.0390625 1.69433594,0.122070312 1.87988281,0.288085938 C2.06542969,0.454101562 2.2249349,0.730794271 2.35839844,1.11816406 C2.50813802,1.54785156 2.66438802,1.98486328 2.82714844,2.42919922 C2.98990885,2.87353516 3.14778646,3.31380208 3.30078125,3.75 C3.49283854,4.28710938 3.6726888,4.79248047 3.84033203,5.26611328 C4.00797526,5.73974609 4.15364583,6.12792969 4.27734375,6.43066406 C4.40755208,6.74967448 4.51741536,6.95882161 4.60693359,7.05810547 C4.69645182,7.15738932 4.85188802,7.20703125 5.07324219,7.20703125 L5.29296875,7.20703125 L5.29296875,7.51953125 C5.13020833,7.56835938 4.98453776,7.61149089 4.85595703,7.64892578 C4.7273763,7.68636068 4.58984375,7.70507812 4.44335938,7.70507812 C4.30664062,7.70507812 4.19514974,7.67903646 4.10888672,7.62695312 C4.0226237,7.57486979 3.9469401,7.5 3.88183594,7.40234375 C3.81998698,7.30794271 3.76627604,7.1891276 3.72070312,7.04589844 C3.67513021,6.90266927 3.6328125,6.76595052 3.59375,6.63574219 C3.51236979,6.3655599 3.41227214,5.99202474 3.29345703,5.51513672 C3.17464193,5.0382487 3.02083333,4.48404948 2.83203125,3.85253906 C2.61393229,4.28222656 2.36735026,4.79410807 2.09228516,5.38818359 C1.81722005,5.98225911 1.59505208,6.45182292 1.42578125,6.796875 C1.34114583,6.96614583 1.27848307,7.1110026 1.23779297,7.23144531 C1.19710286,7.35188802 1.15559896,7.47721354 1.11328125,7.60742188 L0,7.60742188 L2.38769531,2.78320312 C2.27701823,2.40559896 2.16715495,2.09147135 2.05810547,1.84082031 C1.94905599,1.59016927 1.82942708,1.36230469 1.69921875,1.15722656 Z" id="Path"></path>
            <path d="M9.98535156,5.15136719 C9.98535156,5.48990885 9.93164062,5.82275391 9.82421875,6.14990234 C9.71679688,6.47705078 9.56380208,6.75455729 9.36523438,6.98242188 C9.140625,7.24283854 8.88020833,7.43652344 8.58398438,7.56347656 C8.28776042,7.69042969 7.95572917,7.75390625 7.58789062,7.75390625 C7.28190104,7.75390625 6.9905599,7.6961263 6.71386719,7.58056641 C6.43717448,7.46500651 6.19140625,7.29654948 5.9765625,7.07519531 C5.76497396,6.85709635 5.59651693,6.59098307 5.47119141,6.27685547 C5.34586589,5.96272786 5.28320312,5.61035156 5.28320312,5.21972656 C5.28320312,4.46777344 5.50211589,3.85253906 5.93994141,3.37402344 C6.37776693,2.89550781 6.9514974,2.65625 7.66113281,2.65625 C8.33496094,2.65625 8.89078776,2.88330078 9.32861328,3.33740234 C9.7664388,3.79150391 9.98535156,4.39615885 9.98535156,5.15136719 Z M8.97460938,5.16113281 C8.97460938,4.91699219 8.95019531,4.65901693 8.90136719,4.38720703 C8.85253906,4.11539714 8.77929688,3.88509115 8.68164062,3.69628906 C8.57747396,3.49446615 8.44075521,3.33251953 8.27148438,3.21044922 C8.10221354,3.08837891 7.89550781,3.02734375 7.65136719,3.02734375 C7.40071615,3.02734375 7.1866862,3.08919271 7.00927734,3.21289062 C6.83186849,3.33658854 6.68782552,3.50585938 6.57714844,3.72070312 C6.47298177,3.91927083 6.39973958,4.14550781 6.35742188,4.39941406 C6.31510417,4.65332031 6.29394531,4.89908854 6.29394531,5.13671875 C6.29394531,5.44921875 6.31917318,5.73811849 6.36962891,6.00341797 C6.42008464,6.26871745 6.50065104,6.50553385 6.61132812,6.71386719 C6.72200521,6.92220052 6.86116536,7.08577474 7.02880859,7.20458984 C7.19645182,7.32340495 7.40397135,7.3828125 7.65136719,7.3828125 C8.05826823,7.3828125 8.38053385,7.1858724 8.61816406,6.79199219 C8.85579427,6.39811198 8.97460938,5.85449219 8.97460938,5.16113281 Z M8.35449219,0.09765625 C8.2828776,0.29296875 8.19580078,0.559082031 8.09326172,0.895996094 C7.99072266,1.23291016 7.89550781,1.61621094 7.80761719,2.04589844 L7.51953125,2.04589844 C7.43164062,1.60970052 7.33398438,1.21826172 7.2265625,0.871582031 C7.11914062,0.524902344 7.03450521,0.266927083 6.97265625,0.09765625 L6.97265625,0 L8.35449219,0 L8.35449219,0.09765625 Z" id="Shape"></path>
            <path d="M13.4912109,8.70605469 C13.4912109,8.95345052 13.4765625,9.14957682 13.4472656,9.29443359 C13.4179688,9.43929036 13.3789062,9.54589844 13.3300781,9.61425781 C13.28125,9.68261719 13.2267253,9.7265625 13.1665039,9.74609375 C13.1062826,9.765625 13.0371094,9.77539062 12.9589844,9.77539062 C12.7929688,9.77539062 12.6668294,9.72249349 12.5805664,9.61669922 C12.4943034,9.51090495 12.4511719,9.35221354 12.4511719,9.140625 C12.4511719,8.91276042 12.4715169,8.66210938 12.512207,8.38867188 C12.5528971,8.11523438 12.6123047,7.83040365 12.6904297,7.53417969 C12.4397786,6.78548177 12.195638,6.13688151 11.9580078,5.58837891 C11.7203776,5.0398763 11.4339193,4.38476562 11.0986328,3.62304688 C11.023763,3.45703125 10.9195964,3.34065755 10.7861328,3.27392578 C10.6526693,3.20719401 10.4801432,3.16894531 10.2685547,3.15917969 L10.2685547,2.84179688 L11.71875,2.734375 L11.7871094,2.80273438 C11.875,3.03059896 11.9938151,3.31136068 12.1435547,3.64501953 C12.2932943,3.97867839 12.4479167,4.34082031 12.6074219,4.73144531 C12.7311198,5.03092448 12.8588867,5.38085938 12.9907227,5.78125 C13.1225586,6.18164062 13.1998698,6.49251302 13.2226562,6.71386719 C13.3300781,6.43066406 13.4602865,6.13932292 13.6132812,5.83984375 C13.766276,5.54036458 13.8802083,5.30273438 13.9550781,5.12695312 C14.0364583,4.93489583 14.0958659,4.77864583 14.1333008,4.65820312 C14.1707357,4.53776042 14.1894531,4.42708333 14.1894531,4.32617188 C14.1894531,4.13085938 14.1650391,3.93066406 14.1162109,3.72558594 C14.0673828,3.52050781 14.0429688,3.35286458 14.0429688,3.22265625 C14.0429688,3.07942708 14.0966797,2.95003255 14.2041016,2.83447266 C14.3115234,2.71891276 14.4498698,2.66113281 14.6191406,2.66113281 C14.7916667,2.66113281 14.9283854,2.70996094 15.0292969,2.80761719 C15.1302083,2.90527344 15.1806641,3.046875 15.1806641,3.23242188 C15.1806641,3.4375 15.1310221,3.65722656 15.0317383,3.89160156 C14.9324544,4.12597656 14.8177083,4.37174479 14.6875,4.62890625 C14.4921875,5.01627604 14.2635091,5.44759115 14.0014648,5.92285156 C13.7394206,6.39811198 13.5205078,6.8733724 13.3447266,7.34863281 C13.3772786,7.63834635 13.4098307,7.90039062 13.4423828,8.13476562 C13.4749349,8.36914062 13.4912109,8.55957031 13.4912109,8.70605469 Z" id="Path"></path>
            <path d="M20.5126953,5.15136719 C20.5126953,5.48990885 20.4589844,5.82275391 20.3515625,6.14990234 C20.2441406,6.47705078 20.0911458,6.75455729 19.8925781,6.98242188 C19.6679688,7.24283854 19.4075521,7.43652344 19.1113281,7.56347656 C18.8151042,7.69042969 18.4830729,7.75390625 18.1152344,7.75390625 C17.8092448,7.75390625 17.5179036,7.6961263 17.2412109,7.58056641 C16.9645182,7.46500651 16.71875,7.29654948 16.5039062,7.07519531 C16.2923177,6.85709635 16.1238607,6.59098307 15.9985352,6.27685547 C15.8732096,5.96272786 15.8105469,5.61035156 15.8105469,5.21972656 C15.8105469,4.46777344 16.0294596,3.85253906 16.4672852,3.37402344 C16.9051107,2.89550781 17.4788411,2.65625 18.1884766,2.65625 C18.8623047,2.65625 19.4181315,2.88330078 19.855957,3.33740234 C20.2937826,3.79150391 20.5126953,4.39615885 20.5126953,5.15136719 Z M19.5019531,5.16113281 C19.5019531,4.91699219 19.4775391,4.65901693 19.4287109,4.38720703 C19.3798828,4.11539714 19.3066406,3.88509115 19.2089844,3.69628906 C19.1048177,3.49446615 18.968099,3.33251953 18.7988281,3.21044922 C18.6295573,3.08837891 18.4228516,3.02734375 18.1787109,3.02734375 C17.9280599,3.02734375 17.7140299,3.08919271 17.5366211,3.21289062 C17.3592122,3.33658854 17.2151693,3.50585938 17.1044922,3.72070312 C17.0003255,3.91927083 16.9270833,4.14550781 16.8847656,4.39941406 C16.8424479,4.65332031 16.8212891,4.89908854 16.8212891,5.13671875 C16.8212891,5.44921875 16.8465169,5.73811849 16.8969727,6.00341797 C16.9474284,6.26871745 17.0279948,6.50553385 17.1386719,6.71386719 C17.249349,6.92220052 17.3885091,7.08577474 17.5561523,7.20458984 C17.7237956,7.32340495 17.9313151,7.3828125 18.1787109,7.3828125 C18.585612,7.3828125 18.9078776,7.1858724 19.1455078,6.79199219 C19.383138,6.39811198 19.5019531,5.85449219 19.5019531,5.16113281 Z" id="Shape"></path>
            <path d="M25.1660156,7.95410156 C25.1660156,8.40983073 24.9910482,8.79720052 24.6411133,9.11621094 C24.2911784,9.43522135 23.8639323,9.59472656 23.359375,9.59472656 C23.0013021,9.59472656 22.7449544,9.54752604 22.590332,9.453125 C22.4357096,9.35872396 22.3583984,9.23665365 22.3583984,9.08691406 C22.3583984,8.95670573 22.3958333,8.85498047 22.4707031,8.78173828 C22.5455729,8.70849609 22.664388,8.671875 22.8271484,8.671875 C22.9182943,8.671875 23.0004883,8.68815104 23.0737305,8.72070312 C23.1469727,8.75325521 23.2210286,8.79720052 23.2958984,8.85253906 C23.3544922,8.89485677 23.4220378,8.9469401 23.4985352,9.00878906 C23.5750326,9.07063802 23.6474609,9.11946615 23.7158203,9.15527344 C23.9371745,9.1422526 24.1373698,9.04785156 24.3164062,8.87207031 C24.4954427,8.69628906 24.5849609,8.48144531 24.5849609,8.22753906 C24.5849609,8.05826823 24.5320638,7.92073568 24.4262695,7.81494141 C24.3204753,7.70914714 24.1780599,7.63509115 23.9990234,7.59277344 C23.8167318,7.55045573 23.6303711,7.52034505 23.4399414,7.50244141 C23.2495117,7.48453776 23.0208333,7.43326823 22.7539062,7.34863281 C22.2688802,7.19563802 21.887207,6.92708333 21.6088867,6.54296875 C21.3305664,6.15885417 21.1914062,5.71451823 21.1914062,5.20996094 C21.1914062,4.77050781 21.2613932,4.39046224 21.4013672,4.06982422 C21.5413411,3.7491862 21.7236328,3.48144531 21.9482422,3.26660156 C22.1565755,3.06803385 22.3958333,2.91666667 22.6660156,2.8125 C22.9361979,2.70833333 23.1982422,2.65625 23.4521484,2.65625 C23.9534505,2.65625 24.362793,2.76041667 24.6801758,2.96875 C24.9975586,3.17708333 25.15625,3.45052083 25.15625,3.7890625 C25.15625,3.9453125 25.1204427,4.08447266 25.0488281,4.20654297 C24.9772135,4.32861328 24.851888,4.38964844 24.6728516,4.38964844 C24.4807943,4.38964844 24.3334961,4.34326172 24.230957,4.25048828 C24.128418,4.15771484 24.0771484,4.05273438 24.0771484,3.93554688 C24.0771484,3.81510417 24.0885417,3.69954427 24.1113281,3.58886719 C24.1341146,3.4781901 24.1552734,3.36263021 24.1748047,3.2421875 C24.1064453,3.18684896 24.0120443,3.13720703 23.8916016,3.09326172 C23.7711589,3.04931641 23.6246745,3.02734375 23.4521484,3.02734375 C23.3219401,3.02734375 23.1787109,3.05908203 23.0224609,3.12255859 C22.8662109,3.18603516 22.718099,3.29427083 22.578125,3.44726562 C22.4446615,3.59049479 22.3331706,3.7890625 22.2436523,4.04296875 C22.1541341,4.296875 22.109375,4.60611979 22.109375,4.97070312 C22.109375,5.41341146 22.2062174,5.76904297 22.3999023,6.03759766 C22.5935872,6.30615234 22.874349,6.49088542 23.2421875,6.59179688 C23.4244792,6.640625 23.597819,6.67480469 23.762207,6.69433594 C23.9265951,6.71386719 24.0950521,6.74479167 24.2675781,6.78710938 C24.5703125,6.86197917 24.7957357,7.00195312 24.9438477,7.20703125 C25.0919596,7.41210938 25.1660156,7.66113281 25.1660156,7.95410156 Z" id="Path"></path>
        </g>
        <g id="λόγου" transform="translate(2.833496, 16.392578)" fill="#00C3FF" fill-rule="nonzero">
            <path d="M1.69921875,1.15722656 C1.59505208,1.14746094 1.47542318,1.14257812 1.34033203,1.14257812 C1.20524089,1.14257812 1.11002604,1.14095052 1.0546875,1.13769531 C0.891927083,1.1311849 0.766601562,1.07177734 0.678710938,0.959472656 C0.590820312,0.847167969 0.546875,0.730794271 0.546875,0.610351562 C0.546875,0.463867188 0.603841146,0.33203125 0.717773438,0.21484375 C0.831705729,0.09765625 0.994466146,0.0390625 1.20605469,0.0390625 C1.46972656,0.0390625 1.69433594,0.122070312 1.87988281,0.288085938 C2.06542969,0.454101562 2.2249349,0.730794271 2.35839844,1.11816406 C2.50813802,1.54785156 2.66438802,1.98486328 2.82714844,2.42919922 C2.98990885,2.87353516 3.14778646,3.31380208 3.30078125,3.75 C3.49283854,4.28710938 3.6726888,4.79248047 3.84033203,5.26611328 C4.00797526,5.73974609 4.15364583,6.12792969 4.27734375,6.43066406 C4.40755208,6.74967448 4.51741536,6.95882161 4.60693359,7.05810547 C4.69645182,7.15738932 4.85188802,7.20703125 5.07324219,7.20703125 L5.29296875,7.20703125 L5.29296875,7.51953125 C5.13020833,7.56835938 4.98453776,7.61149089 4.85595703,7.64892578 C4.7273763,7.68636068 4.58984375,7.70507812 4.44335938,7.70507812 C4.30664062,7.70507812 4.19514974,7.67903646 4.10888672,7.62695312 C4.0226237,7.57486979 3.9469401,7.5 3.88183594,7.40234375 C3.81998698,7.30794271 3.76627604,7.1891276 3.72070312,7.04589844 C3.67513021,6.90266927 3.6328125,6.76595052 3.59375,6.63574219 C3.51236979,6.3655599 3.41227214,5.99202474 3.29345703,5.51513672 C3.17464193,5.0382487 3.02083333,4.48404948 2.83203125,3.85253906 C2.61393229,4.28222656 2.36735026,4.79410807 2.09228516,5.38818359 C1.81722005,5.98225911 1.59505208,6.45182292 1.42578125,6.796875 C1.34114583,6.96614583 1.27848307,7.1110026 1.23779297,7.23144531 C1.19710286,7.35188802 1.15559896,7.47721354 1.11328125,7.60742188 L0,7.60742188 L2.38769531,2.78320312 C2.27701823,2.40559896 2.16715495,2.09147135 2.05810547,1.84082031 C1.94905599,1.59016927 1.82942708,1.36230469 1.69921875,1.15722656 Z" id="Path"></path>
            <path d="M9.98535156,5.15136719 C9.98535156,5.48990885 9.93164062,5.82275391 9.82421875,6.14990234 C9.71679688,6.47705078 9.56380208,6.75455729 9.36523438,6.98242188 C9.140625,7.24283854 8.88020833,7.43652344 8.58398438,7.56347656 C8.28776042,7.69042969 7.95572917,7.75390625 7.58789062,7.75390625 C7.28190104,7.75390625 6.9905599,7.6961263 6.71386719,7.58056641 C6.43717448,7.46500651 6.19140625,7.29654948 5.9765625,7.07519531 C5.76497396,6.85709635 5.59651693,6.59098307 5.47119141,6.27685547 C5.34586589,5.96272786 5.28320312,5.61035156 5.28320312,5.21972656 C5.28320312,4.46777344 5.50211589,3.85253906 5.93994141,3.37402344 C6.37776693,2.89550781 6.9514974,2.65625 7.66113281,2.65625 C8.33496094,2.65625 8.89078776,2.88330078 9.32861328,3.33740234 C9.7664388,3.79150391 9.98535156,4.39615885 9.98535156,5.15136719 Z M8.97460938,5.16113281 C8.97460938,4.91699219 8.95019531,4.65901693 8.90136719,4.38720703 C8.85253906,4.11539714 8.77929688,3.88509115 8.68164062,3.69628906 C8.57747396,3.49446615 8.44075521,3.33251953 8.27148438,3.21044922 C8.10221354,3.08837891 7.89550781,3.02734375 7.65136719,3.02734375 C7.40071615,3.02734375 7.1866862,3.08919271 7.00927734,3.21289062 C6.83186849,3.33658854 6.68782552,3.50585938 6.57714844,3.72070312 C6.47298177,3.91927083 6.39973958,4.14550781 6.35742188,4.39941406 C6.31510417,4.65332031 6.29394531,4.89908854 6.29394531,5.13671875 C6.29394531,5.44921875 6.31917318,5.73811849 6.36962891,6.00341797 C6.42008464,6.26871745 6.50065104,6.50553385 6.61132812,6.71386719 C6.72200521,6.92220052 6.86116536,7.08577474 7.02880859,7.20458984 C7.19645182,7.32340495 7.40397135,7.3828125 7.65136719,7.3828125 C8.05826823,7.3828125 8.38053385,7.1858724 8.61816406,6.79199219 C8.85579427,6.39811198 8.97460938,5.85449219 8.97460938,5.16113281 Z M8.35449219,0.09765625 C8.2828776,0.29296875 8.19580078,0.559082031 8.09326172,0.895996094 C7.99072266,1.23291016 7.89550781,1.61621094 7.80761719,2.04589844 L7.51953125,2.04589844 C7.43164062,1.60970052 7.33398438,1.21826172 7.2265625,0.871582031 C7.11914062,0.524902344 7.03450521,0.266927083 6.97265625,0.09765625 L6.97265625,0 L8.35449219,0 L8.35449219,0.09765625 Z" id="Shape"></path>
            <path d="M13.4912109,8.70605469 C13.4912109,8.95345052 13.4765625,9.14957682 13.4472656,9.29443359 C13.4179688,9.43929036 13.3789062,9.54589844 13.3300781,9.61425781 C13.28125,9.68261719 13.2267253,9.7265625 13.1665039,9.74609375 C13.1062826,9.765625 13.0371094,9.77539062 12.9589844,9.77539062 C12.7929688,9.77539062 12.6668294,9.72249349 12.5805664,9.61669922 C12.4943034,9.51090495 12.4511719,9.35221354 12.4511719,9.140625 C12.4511719,8.91276042 12.4715169,8.66210938 12.512207,8.38867188 C12.5528971,8.11523438 12.6123047,7.83040365 12.6904297,7.53417969 C12.4397786,6.78548177 12.195638,6.13688151 11.9580078,5.58837891 C11.7203776,5.0398763 11.4339193,4.38476562 11.0986328,3.62304688 C11.023763,3.45703125 10.9195964,3.34065755 10.7861328,3.27392578 C10.6526693,3.20719401 10.4801432,3.16894531 10.2685547,3.15917969 L10.2685547,2.84179688 L11.71875,2.734375 L11.7871094,2.80273438 C11.875,3.03059896 11.9938151,3.31136068 12.1435547,3.64501953 C12.2932943,3.97867839 12.4479167,4.34082031 12.6074219,4.73144531 C12.7311198,5.03092448 12.8588867,5.38085938 12.9907227,5.78125 C13.1225586,6.18164062 13.1998698,6.49251302 13.2226562,6.71386719 C13.3300781,6.43066406 13.4602865,6.13932292 13.6132812,5.83984375 C13.766276,5.54036458 13.8802083,5.30273438 13.9550781,5.12695312 C14.0364583,4.93489583 14.0958659,4.77864583 14.1333008,4.65820312 C14.1707357,4.53776042 14.1894531,4.42708333 14.1894531,4.32617188 C14.1894531,4.13085938 14.1650391,3.93066406 14.1162109,3.72558594 C14.0673828,3.52050781 14.0429688,3.35286458 14.0429688,3.22265625 C14.0429688,3.07942708 14.0966797,2.95003255 14.2041016,2.83447266 C14.3115234,2.71891276 14.4498698,2.66113281 14.6191406,2.66113281 C14.7916667,2.66113281 14.9283854,2.70996094 15.0292969,2.80761719 C15.1302083,2.90527344 15.1806641,3.046875 15.1806641,3.23242188 C15.1806641,3.4375 15.1310221,3.65722656 15.0317383,3.89160156 C14.9324544,4.12597656 14.8177083,4.37174479 14.6875,4.62890625 C14.4921875,5.01627604 14.2635091,5.44759115 14.0014648,5.92285156 C13.7394206,6.39811198 13.5205078,6.8733724 13.3447266,7.34863281 C13.3772786,7.63834635 13.4098307,7.90039062 13.4423828,8.13476562 C13.4749349,8.36914062 13.4912109,8.55957031 13.4912109,8.70605469 Z" id="Path"></path>
            <path d="M20.5126953,5.15136719 C20.5126953,5.48990885 20.4589844,5.82275391 20.3515625,6.14990234 C20.2441406,6.47705078 20.0911458,6.75455729 19.8925781,6.98242188 C19.6679688,7.24283854 19.4075521,7.43652344 19.1113281,7.56347656 C18.8151042,7.69042969 18.4830729,7.75390625 18.1152344,7.75390625 C17.8092448,7.75390625 17.5179036,7.6961263 17.2412109,7.58056641 C16.9645182,7.46500651 16.71875,7.29654948 16.5039062,7.07519531 C16.2923177,6.85709635 16.1238607,6.59098307 15.9985352,6.27685547 C15.8732096,5.96272786 15.8105469,5.61035156 15.8105469,5.21972656 C15.8105469,4.46777344 16.0294596,3.85253906 16.4672852,3.37402344 C16.9051107,2.89550781 17.4788411,2.65625 18.1884766,2.65625 C18.8623047,2.65625 19.4181315,2.88330078 19.855957,3.33740234 C20.2937826,3.79150391 20.5126953,4.39615885 20.5126953,5.15136719 Z M19.5019531,5.16113281 C19.5019531,4.91699219 19.4775391,4.65901693 19.4287109,4.38720703 C19.3798828,4.11539714 19.3066406,3.88509115 19.2089844,3.69628906 C19.1048177,3.49446615 18.968099,3.33251953 18.7988281,3.21044922 C18.6295573,3.08837891 18.4228516,3.02734375 18.1787109,3.02734375 C17.9280599,3.02734375 17.7140299,3.08919271 17.5366211,3.21289062 C17.3592122,3.33658854 17.2151693,3.50585938 17.1044922,3.72070312 C17.0003255,3.91927083 16.9270833,4.14550781 16.8847656,4.39941406 C16.8424479,4.65332031 16.8212891,4.89908854 16.8212891,5.13671875 C16.8212891,5.44921875 16.8465169,5.73811849 16.8969727,6.00341797 C16.9474284,6.26871745 17.0279948,6.50553385 17.1386719,6.71386719 C17.249349,6.92220052 17.3885091,7.08577474 17.5561523,7.20458984 C17.7237956,7.32340495 17.9313151,7.3828125 18.1787109,7.3828125 C18.585612,7.3828125 18.9078776,7.1858724 19.1455078,6.79199219 C19.383138,6.39811198 19.5019531,5.85449219 19.5019531,5.16113281 Z" id="Shape"></path>
            <path d="M25.2685547,6.78222656 C25.069987,7.08496094 24.835612,7.32096354 24.5654297,7.49023438 C24.2952474,7.65950521 23.9697266,7.74414062 23.5888672,7.74414062 C23.3642578,7.74414062 23.1453451,7.71321615 22.9321289,7.65136719 C22.7189128,7.58951823 22.5309245,7.49186198 22.3681641,7.35839844 C22.195638,7.21516927 22.0638021,7.04671224 21.9726562,6.85302734 C21.8815104,6.65934245 21.8359375,6.4046224 21.8359375,6.08886719 L21.8505859,3.80859375 C21.8505859,3.63932292 21.8155924,3.50830078 21.7456055,3.41552734 C21.6756185,3.32275391 21.5494792,3.27636719 21.3671875,3.27636719 C21.2890625,3.27636719 21.2019857,3.2820638 21.105957,3.29345703 C21.0099284,3.30485026 20.9391276,3.31217448 20.8935547,3.31542969 L20.8935547,3.00292969 C21.0107422,2.95410156 21.1710612,2.89632161 21.3745117,2.82958984 C21.5779622,2.76285807 21.7480469,2.72949219 21.8847656,2.72949219 C22.2167969,2.72949219 22.4511719,2.81738281 22.5878906,2.99316406 C22.7246094,3.16894531 22.7913411,3.45540365 22.7880859,3.85253906 L22.7734375,5.88867188 C22.7669271,6.20768229 22.8011068,6.45182292 22.8759766,6.62109375 C22.9508464,6.79036458 23.0403646,6.91731771 23.1445312,7.00195312 C23.2421875,7.08333333 23.3544922,7.13541667 23.4814453,7.15820312 C23.6083984,7.18098958 23.7288411,7.19238281 23.8427734,7.19238281 C24.2789714,7.19238281 24.6354167,6.99625651 24.9121094,6.60400391 C25.1888021,6.2117513 25.3271484,5.71289062 25.3271484,5.10742188 C25.3271484,4.84700521 25.2913411,4.62646484 25.2197266,4.44580078 C25.148112,4.26513672 25.0260417,4.10481771 24.8535156,3.96484375 C24.7265625,3.86067708 24.617513,3.74511719 24.5263672,3.61816406 C24.4352214,3.49121094 24.3896484,3.34472656 24.3896484,3.17871094 C24.3896484,3.05175781 24.440918,2.94108073 24.543457,2.84667969 C24.6459961,2.75227865 24.7753906,2.70507812 24.9316406,2.70507812 C25.1204427,2.70507812 25.2766927,2.76448568 25.4003906,2.88330078 C25.5240885,3.00211589 25.616862,3.14778646 25.6787109,3.3203125 C25.7405599,3.49609375 25.7845052,3.68164062 25.8105469,3.87695312 C25.8365885,4.07226562 25.8496094,4.28385417 25.8496094,4.51171875 C25.8496094,4.93164062 25.7999674,5.34423828 25.7006836,5.74951172 C25.6013997,6.15478516 25.4573568,6.49902344 25.2685547,6.78222656 Z" id="Path"></path>
        </g>
    </g>
</svg>