<?xml version="1.0" encoding="UTF-8"?>
<svg width="32px" height="32px" viewBox="0 0 32 32" version="1.1" xmlns="http://www.w3.org/2000/svg" xmlns:xlink="http://www.w3.org/1999/xlink">
    <title>ic_parse@1x</title>
    <g id="ic_parse" stroke="none" stroke-width="1" fill="none" fill-rule="evenodd">
        <rect id="Rectangle" stroke="#000000" stroke-width="2" x="2" y="2" width="28" height="28" rx="5"></rect>
        <g id="λόγος" transform="translate(4.578613, 6.153320)" fill="#000000" fill-rule="nonzero">
            <path d="M1.52929688,1.04150391 C1.43554688,1.03271484 1.32788086,1.02832031 1.20629883,1.02832031 C1.0847168,1.02832031 0.999023438,1.02685547 0.94921875,1.02392578 C0.802734375,1.01806641 0.689941406,0.964599609 0.610839844,0.863525391 C0.531738281,0.762451172 0.4921875,0.657714844 0.4921875,0.549316406 C0.4921875,0.417480469 0.543457031,0.298828125 0.645996094,0.193359375 C0.748535156,0.087890625 0.895019531,0.03515625 1.08544922,0.03515625 C1.32275391,0.03515625 1.52490234,0.109863281 1.69189453,0.259277344 C1.85888672,0.408691406 2.00244141,0.657714844 2.12255859,1.00634766 C2.25732422,1.39306641 2.39794922,1.78637695 2.54443359,2.1862793 C2.69091797,2.58618164 2.83300781,2.98242188 2.97070312,3.375 C3.14355469,3.85839844 3.30541992,4.31323242 3.45629883,4.73950195 C3.60717773,5.16577148 3.73828125,5.51513672 3.84960938,5.78759766 C3.96679688,6.07470703 4.06567383,6.26293945 4.14624023,6.35229492 C4.22680664,6.44165039 4.36669922,6.48632812 4.56591797,6.48632812 L4.76367188,6.48632812 L4.76367188,6.76757812 C4.6171875,6.81152344 4.48608398,6.8503418 4.37036133,6.8840332 C4.25463867,6.91772461 4.13085938,6.93457031 3.99902344,6.93457031 C3.87597656,6.93457031 3.77563477,6.91113281 3.69799805,6.86425781 C3.62036133,6.81738281 3.55224609,6.75 3.49365234,6.66210938 C3.43798828,6.57714844 3.38964844,6.47021484 3.34863281,6.34130859 C3.30761719,6.21240234 3.26953125,6.08935547 3.234375,5.97216797 C3.16113281,5.72900391 3.07104492,5.39282227 2.96411133,4.96362305 C2.85717773,4.53442383 2.71875,4.03564453 2.54882812,3.46728516 C2.35253906,3.85400391 2.13061523,4.31469727 1.88305664,4.84936523 C1.63549805,5.3840332 1.43554688,5.80664062 1.28320312,6.1171875 C1.20703125,6.26953125 1.15063477,6.39990234 1.11401367,6.50830078 C1.07739258,6.61669922 1.04003906,6.72949219 1.00195312,6.84667969 L0,6.84667969 L2.14892578,2.50488281 C2.04931641,2.16503906 1.95043945,1.88232422 1.85229492,1.65673828 C1.75415039,1.43115234 1.64648438,1.22607422 1.52929688,1.04150391 Z" id="Path"></path>
            <path d="M8.98681641,4.63623047 C8.98681641,4.94091797 8.93847656,5.24047852 8.84179688,5.53491211 C8.74511719,5.8293457 8.60742188,6.07910156 8.42871094,6.28417969 C8.2265625,6.51855469 7.9921875,6.69287109 7.72558594,6.80712891 C7.45898438,6.92138672 7.16015625,6.97851562 6.82910156,6.97851562 C6.55371094,6.97851562 6.29150391,6.92651367 6.04248047,6.82250977 C5.79345703,6.71850586 5.57226562,6.56689453 5.37890625,6.36767578 C5.18847656,6.17138672 5.03686523,5.93188477 4.92407227,5.64916992 C4.8112793,5.36645508 4.75488281,5.04931641 4.75488281,4.69775391 C4.75488281,4.02099609 4.9519043,3.46728516 5.34594727,3.03662109 C5.73999023,2.60595703 6.25634766,2.390625 6.89501953,2.390625 C7.50146484,2.390625 8.00170898,2.5949707 8.39575195,3.00366211 C8.78979492,3.41235352 8.98681641,3.95654297 8.98681641,4.63623047 Z M8.07714844,4.64501953 C8.07714844,4.42529297 8.05517578,4.19311523 8.01123047,3.94848633 C7.96728516,3.70385742 7.90136719,3.49658203 7.81347656,3.32666016 C7.71972656,3.14501953 7.59667969,2.99926758 7.44433594,2.8894043 C7.29199219,2.77954102 7.10595703,2.72460938 6.88623047,2.72460938 C6.66064453,2.72460938 6.46801758,2.78027344 6.30834961,2.89160156 C6.14868164,3.00292969 6.01904297,3.15527344 5.91943359,3.34863281 C5.82568359,3.52734375 5.75976562,3.73095703 5.72167969,3.95947266 C5.68359375,4.18798828 5.66455078,4.40917969 5.66455078,4.62304688 C5.66455078,4.90429688 5.68725586,5.16430664 5.73266602,5.40307617 C5.77807617,5.6418457 5.85058594,5.85498047 5.95019531,6.04248047 C6.04980469,6.22998047 6.17504883,6.37719727 6.32592773,6.48413086 C6.47680664,6.59106445 6.66357422,6.64453125 6.88623047,6.64453125 C7.25244141,6.64453125 7.54248047,6.46728516 7.75634766,6.11279297 C7.97021484,5.75830078 8.07714844,5.26904297 8.07714844,4.64501953 Z M7.51904297,0.087890625 C7.45458984,0.263671875 7.3762207,0.503173828 7.28393555,0.806396484 C7.19165039,1.10961914 7.10595703,1.45458984 7.02685547,1.84130859 L6.76757812,1.84130859 C6.68847656,1.44873047 6.60058594,1.09643555 6.50390625,0.784423828 C6.40722656,0.472412109 6.33105469,0.240234375 6.27539062,0.087890625 L6.27539062,0 L7.51904297,0 L7.51904297,0.087890625 Z" id="Shape"></path>
            <path d="M12.1420898,7.83544922 C12.1420898,8.05810547 12.1289062,8.23461914 12.1025391,8.36499023 C12.0761719,8.49536133 12.0410156,8.59130859 11.9970703,8.65283203 C11.953125,8.71435547 11.9040527,8.75390625 11.8498535,8.77148438 C11.7956543,8.7890625 11.7333984,8.79785156 11.6630859,8.79785156 C11.5136719,8.79785156 11.4001465,8.75024414 11.3225098,8.6550293 C11.244873,8.55981445 11.2060547,8.41699219 11.2060547,8.2265625 C11.2060547,8.02148438 11.2243652,7.79589844 11.2609863,7.54980469 C11.2976074,7.30371094 11.3510742,7.04736328 11.4213867,6.78076172 C11.1958008,6.10693359 10.9760742,5.52319336 10.762207,5.02954102 C10.5483398,4.53588867 10.2905273,3.94628906 9.98876953,3.26074219 C9.92138672,3.11132812 9.82763672,3.0065918 9.70751953,2.9465332 C9.58740234,2.88647461 9.43212891,2.85205078 9.24169922,2.84326172 L9.24169922,2.55761719 L10.546875,2.4609375 L10.6083984,2.52246094 C10.6875,2.72753906 10.7944336,2.98022461 10.9291992,3.28051758 C11.0639648,3.58081055 11.203125,3.90673828 11.3466797,4.25830078 C11.4580078,4.52783203 11.572998,4.84277344 11.6916504,5.203125 C11.8103027,5.56347656 11.8798828,5.84326172 11.9003906,6.04248047 C11.9970703,5.78759766 12.1142578,5.52539062 12.2519531,5.25585938 C12.3896484,4.98632812 12.4921875,4.77246094 12.5595703,4.61425781 C12.6328125,4.44140625 12.6862793,4.30078125 12.7199707,4.19238281 C12.7536621,4.08398438 12.7705078,3.984375 12.7705078,3.89355469 C12.7705078,3.71777344 12.7485352,3.53759766 12.7045898,3.35302734 C12.6606445,3.16845703 12.6386719,3.01757812 12.6386719,2.90039062 C12.6386719,2.77148438 12.6870117,2.6550293 12.7836914,2.55102539 C12.8803711,2.44702148 13.0048828,2.39501953 13.1572266,2.39501953 C13.3125,2.39501953 13.4355469,2.43896484 13.5263672,2.52685547 C13.6171875,2.61474609 13.6625977,2.7421875 13.6625977,2.90917969 C13.6625977,3.09375 13.6179199,3.29150391 13.5285645,3.50244141 C13.439209,3.71337891 13.3359375,3.93457031 13.21875,4.16601562 C13.0429688,4.51464844 12.8371582,4.90283203 12.6013184,5.33056641 C12.3654785,5.75830078 12.168457,6.18603516 12.0102539,6.61376953 C12.0395508,6.87451172 12.0688477,7.11035156 12.0981445,7.32128906 C12.1274414,7.53222656 12.1420898,7.70361328 12.1420898,7.83544922 Z" id="Path"></path>
            <path d="M18.4614258,4.63623047 C18.4614258,4.94091797 18.4130859,5.24047852 18.3164062,5.53491211 C18.2197266,5.8293457 18.0820312,6.07910156 17.9033203,6.28417969 C17.7011719,6.51855469 17.4667969,6.69287109 17.2001953,6.80712891 C16.9335938,6.92138672 16.6347656,6.97851562 16.3037109,6.97851562 C16.0283203,6.97851562 15.7661133,6.92651367 15.5170898,6.82250977 C15.2680664,6.71850586 15.046875,6.56689453 14.8535156,6.36767578 C14.6630859,6.17138672 14.5114746,5.93188477 14.3986816,5.64916992 C14.2858887,5.36645508 14.2294922,5.04931641 14.2294922,4.69775391 C14.2294922,4.02099609 14.4265137,3.46728516 14.8205566,3.03662109 C15.2145996,2.60595703 15.730957,2.390625 16.3696289,2.390625 C16.9760742,2.390625 17.4763184,2.5949707 17.8703613,3.00366211 C18.2644043,3.41235352 18.4614258,3.95654297 18.4614258,4.63623047 Z M17.5517578,4.64501953 C17.5517578,4.42529297 17.5297852,4.19311523 17.4858398,3.94848633 C17.4418945,3.70385742 17.3759766,3.49658203 17.2880859,3.32666016 C17.1943359,3.14501953 17.0712891,2.99926758 16.9189453,2.8894043 C16.7666016,2.77954102 16.5805664,2.72460938 16.3608398,2.72460938 C16.1352539,2.72460938 15.942627,2.78027344 15.782959,2.89160156 C15.623291,3.00292969 15.4936523,3.15527344 15.394043,3.34863281 C15.300293,3.52734375 15.234375,3.73095703 15.1962891,3.95947266 C15.1582031,4.18798828 15.1391602,4.40917969 15.1391602,4.62304688 C15.1391602,4.90429688 15.1618652,5.16430664 15.2072754,5.40307617 C15.2526855,5.6418457 15.3251953,5.85498047 15.4248047,6.04248047 C15.5244141,6.22998047 15.6496582,6.37719727 15.8005371,6.48413086 C15.951416,6.59106445 16.1381836,6.64453125 16.3608398,6.64453125 C16.7270508,6.64453125 17.0170898,6.46728516 17.230957,6.11279297 C17.4448242,5.75830078 17.5517578,5.26904297 17.5517578,4.64501953 Z" id="Shape"></path>
            <path d="M22.6494141,7.15869141 C22.6494141,7.56884766 22.4919434,7.91748047 22.177002,8.20458984 C21.8620605,8.49169922 21.4775391,8.63525391 21.0234375,8.63525391 C20.7011719,8.63525391 20.470459,8.59277344 20.3312988,8.5078125 C20.1921387,8.42285156 20.1225586,8.31298828 20.1225586,8.17822266 C20.1225586,8.06103516 20.15625,7.96948242 20.2236328,7.90356445 C20.2910156,7.83764648 20.3979492,7.8046875 20.5444336,7.8046875 C20.6264648,7.8046875 20.7004395,7.81933594 20.7663574,7.84863281 C20.8322754,7.87792969 20.8989258,7.91748047 20.9663086,7.96728516 C21.019043,8.00537109 21.079834,8.05224609 21.1486816,8.10791016 C21.2175293,8.16357422 21.2827148,8.20751953 21.3442383,8.23974609 C21.543457,8.22802734 21.7236328,8.14306641 21.8847656,7.98486328 C22.0458984,7.82666016 22.1264648,7.63330078 22.1264648,7.40478516 C22.1264648,7.25244141 22.0788574,7.12866211 21.9836426,7.03344727 C21.8884277,6.93823242 21.7602539,6.87158203 21.5991211,6.83349609 C21.4350586,6.79541016 21.267334,6.76831055 21.0959473,6.75219727 C20.9245605,6.73608398 20.71875,6.68994141 20.4785156,6.61376953 C20.0419922,6.47607422 19.6984863,6.234375 19.447998,5.88867188 C19.1975098,5.54296875 19.0722656,5.14306641 19.0722656,4.68896484 C19.0722656,4.29345703 19.1352539,3.95141602 19.2612305,3.6628418 C19.387207,3.37426758 19.5512695,3.13330078 19.753418,2.93994141 C19.940918,2.76123047 20.15625,2.625 20.3994141,2.53125 C20.6425781,2.4375 20.878418,2.390625 21.1069336,2.390625 C21.5581055,2.390625 21.9265137,2.484375 22.2121582,2.671875 C22.4978027,2.859375 22.640625,3.10546875 22.640625,3.41015625 C22.640625,3.55078125 22.6083984,3.67602539 22.5439453,3.78588867 C22.4794922,3.89575195 22.3666992,3.95068359 22.2055664,3.95068359 C22.0327148,3.95068359 21.9001465,3.90893555 21.8078613,3.82543945 C21.7155762,3.74194336 21.6694336,3.64746094 21.6694336,3.54199219 C21.6694336,3.43359375 21.6796875,3.32958984 21.7001953,3.22998047 C21.7207031,3.13037109 21.7397461,3.02636719 21.7573242,2.91796875 C21.6958008,2.86816406 21.6108398,2.82348633 21.5024414,2.78393555 C21.394043,2.74438477 21.262207,2.72460938 21.1069336,2.72460938 C20.9897461,2.72460938 20.8608398,2.75317383 20.7202148,2.81030273 C20.5795898,2.86743164 20.4462891,2.96484375 20.3203125,3.10253906 C20.2001953,3.23144531 20.0998535,3.41015625 20.0192871,3.63867188 C19.9387207,3.8671875 19.8984375,4.14550781 19.8984375,4.47363281 C19.8984375,4.87207031 19.9855957,5.19213867 20.1599121,5.43383789 C20.3342285,5.67553711 20.5869141,5.84179688 20.9179688,5.93261719 C21.0820312,5.9765625 21.2380371,6.00732422 21.3859863,6.02490234 C21.5339355,6.04248047 21.6855469,6.0703125 21.8408203,6.10839844 C22.1132812,6.17578125 22.3161621,6.30175781 22.4494629,6.48632812 C22.5827637,6.67089844 22.6494141,6.89501953 22.6494141,7.15869141 Z" id="Path"></path>
        </g>
        <g id="λόγου" transform="translate(4.150146, 16.153320)" fill="#000000" fill-rule="nonzero">
            <path d="M1.52929688,1.04150391 C1.43554688,1.03271484 1.32788086,1.02832031 1.20629883,1.02832031 C1.0847168,1.02832031 0.999023438,1.02685547 0.94921875,1.02392578 C0.802734375,1.01806641 0.689941406,0.964599609 0.610839844,0.863525391 C0.531738281,0.762451172 0.4921875,0.657714844 0.4921875,0.549316406 C0.4921875,0.417480469 0.543457031,0.298828125 0.645996094,0.193359375 C0.748535156,0.087890625 0.895019531,0.03515625 1.08544922,0.03515625 C1.32275391,0.03515625 1.52490234,0.109863281 1.69189453,0.259277344 C1.85888672,0.408691406 2.00244141,0.657714844 2.12255859,1.00634766 C2.25732422,1.39306641 2.39794922,1.78637695 2.54443359,2.1862793 C2.69091797,2.58618164 2.83300781,2.98242188 2.97070312,3.375 C3.14355469,3.85839844 3.30541992,4.31323242 3.45629883,4.73950195 C3.60717773,5.16577148 3.73828125,5.51513672 3.84960938,5.78759766 C3.96679688,6.07470703 4.06567383,6.26293945 4.14624023,6.35229492 C4.22680664,6.44165039 4.36669922,6.48632812 4.56591797,6.48632812 L4.76367188,6.48632812 L4.76367188,6.76757812 C4.6171875,6.81152344 4.48608398,6.8503418 4.37036133,6.8840332 C4.25463867,6.91772461 4.13085938,6.93457031 3.99902344,6.93457031 C3.87597656,6.93457031 3.77563477,6.91113281 3.69799805,6.86425781 C3.62036133,6.81738281 3.55224609,6.75 3.49365234,6.66210938 C3.43798828,6.57714844 3.38964844,6.47021484 3.34863281,6.34130859 C3.30761719,6.21240234 3.26953125,6.08935547 3.234375,5.97216797 C3.16113281,5.72900391 3.07104492,5.39282227 2.96411133,4.96362305 C2.85717773,4.53442383 2.71875,4.03564453 2.54882812,3.46728516 C2.35253906,3.85400391 2.13061523,4.31469727 1.88305664,4.84936523 C1.63549805,5.3840332 1.43554688,5.80664062 1.28320312,6.1171875 C1.20703125,6.26953125 1.15063477,6.39990234 1.11401367,6.50830078 C1.07739258,6.61669922 1.04003906,6.72949219 1.00195312,6.84667969 L0,6.84667969 L2.14892578,2.50488281 C2.04931641,2.16503906 1.95043945,1.88232422 1.85229492,1.65673828 C1.75415039,1.43115234 1.64648438,1.22607422 1.52929688,1.04150391 Z" id="Path"></path>
            <path d="M8.98681641,4.63623047 C8.98681641,4.94091797 8.93847656,5.24047852 8.84179688,5.53491211 C8.74511719,5.8293457 8.60742188,6.07910156 8.42871094,6.28417969 C8.2265625,6.51855469 7.9921875,6.69287109 7.72558594,6.80712891 C7.45898438,6.92138672 7.16015625,6.97851562 6.82910156,6.97851562 C6.55371094,6.97851562 6.29150391,6.92651367 6.04248047,6.82250977 C5.79345703,6.71850586 5.57226562,6.56689453 5.37890625,6.36767578 C5.18847656,6.17138672 5.03686523,5.93188477 4.92407227,5.64916992 C4.8112793,5.36645508 4.75488281,5.04931641 4.75488281,4.69775391 C4.75488281,4.02099609 4.9519043,3.46728516 5.34594727,3.03662109 C5.73999023,2.60595703 6.25634766,2.390625 6.89501953,2.390625 C7.50146484,2.390625 8.00170898,2.5949707 8.39575195,3.00366211 C8.78979492,3.41235352 8.98681641,3.95654297 8.98681641,4.63623047 Z M8.07714844,4.64501953 C8.07714844,4.42529297 8.05517578,4.19311523 8.01123047,3.94848633 C7.96728516,3.70385742 7.90136719,3.49658203 7.81347656,3.32666016 C7.71972656,3.14501953 7.59667969,2.99926758 7.44433594,2.8894043 C7.29199219,2.77954102 7.10595703,2.72460938 6.88623047,2.72460938 C6.66064453,2.72460938 6.46801758,2.78027344 6.30834961,2.89160156 C6.14868164,3.00292969 6.01904297,3.15527344 5.91943359,3.34863281 C5.82568359,3.52734375 5.75976562,3.73095703 5.72167969,3.95947266 C5.68359375,4.18798828 5.66455078,4.40917969 5.66455078,4.62304688 C5.66455078,4.90429688 5.68725586,5.16430664 5.73266602,5.40307617 C5.77807617,5.6418457 5.85058594,5.85498047 5.95019531,6.04248047 C6.04980469,6.22998047 6.17504883,6.37719727 6.32592773,6.48413086 C6.47680664,6.59106445 6.66357422,6.64453125 6.88623047,6.64453125 C7.25244141,6.64453125 7.54248047,6.46728516 7.75634766,6.11279297 C7.97021484,5.75830078 8.07714844,5.26904297 8.07714844,4.64501953 Z M7.51904297,0.087890625 C7.45458984,0.263671875 7.3762207,0.503173828 7.28393555,0.806396484 C7.19165039,1.10961914 7.10595703,1.45458984 7.02685547,1.84130859 L6.76757812,1.84130859 C6.68847656,1.44873047 6.60058594,1.09643555 6.50390625,0.784423828 C6.40722656,0.472412109 6.33105469,0.240234375 6.27539062,0.087890625 L6.27539062,0 L7.51904297,0 L7.51904297,0.087890625 Z" id="Shape"></path>
            <path d="M12.1420898,7.83544922 C12.1420898,8.05810547 12.1289062,8.23461914 12.1025391,8.36499023 C12.0761719,8.49536133 12.0410156,8.59130859 11.9970703,8.65283203 C11.953125,8.71435547 11.9040527,8.75390625 11.8498535,8.77148438 C11.7956543,8.7890625 11.7333984,8.79785156 11.6630859,8.79785156 C11.5136719,8.79785156 11.4001465,8.75024414 11.3225098,8.6550293 C11.244873,8.55981445 11.2060547,8.41699219 11.2060547,8.2265625 C11.2060547,8.02148438 11.2243652,7.79589844 11.2609863,7.54980469 C11.2976074,7.30371094 11.3510742,7.04736328 11.4213867,6.78076172 C11.1958008,6.10693359 10.9760742,5.52319336 10.762207,5.02954102 C10.5483398,4.53588867 10.2905273,3.94628906 9.98876953,3.26074219 C9.92138672,3.11132812 9.82763672,3.0065918 9.70751953,2.9465332 C9.58740234,2.88647461 9.43212891,2.85205078 9.24169922,2.84326172 L9.24169922,2.55761719 L10.546875,2.4609375 L10.6083984,2.52246094 C10.6875,2.72753906 10.7944336,2.98022461 10.9291992,3.28051758 C11.0639648,3.58081055 11.203125,3.90673828 11.3466797,4.25830078 C11.4580078,4.52783203 11.572998,4.84277344 11.6916504,5.203125 C11.8103027,5.56347656 11.8798828,5.84326172 11.9003906,6.04248047 C11.9970703,5.78759766 12.1142578,5.52539062 12.2519531,5.25585938 C12.3896484,4.98632812 12.4921875,4.77246094 12.5595703,4.61425781 C12.6328125,4.44140625 12.6862793,4.30078125 12.7199707,4.19238281 C12.7536621,4.08398438 12.7705078,3.984375 12.7705078,3.89355469 C12.7705078,3.71777344 12.7485352,3.53759766 12.7045898,3.35302734 C12.6606445,3.16845703 12.6386719,3.01757812 12.6386719,2.90039062 C12.6386719,2.77148438 12.6870117,2.6550293 12.7836914,2.55102539 C12.8803711,2.44702148 13.0048828,2.39501953 13.1572266,2.39501953 C13.3125,2.39501953 13.4355469,2.43896484 13.5263672,2.52685547 C13.6171875,2.61474609 13.6625977,2.7421875 13.6625977,2.90917969 C13.6625977,3.09375 13.6179199,3.29150391 13.5285645,3.50244141 C13.439209,3.71337891 13.3359375,3.93457031 13.21875,4.16601562 C13.0429688,4.51464844 12.8371582,4.90283203 12.6013184,5.33056641 C12.3654785,5.75830078 12.168457,6.18603516 12.0102539,6.61376953 C12.0395508,6.87451172 12.0688477,7.11035156 12.0981445,7.32128906 C12.1274414,7.53222656 12.1420898,7.70361328 12.1420898,7.83544922 Z" id="Path"></path>
            <path d="M18.4614258,4.63623047 C18.4614258,4.94091797 18.4130859,5.24047852 18.3164062,5.53491211 C18.2197266,5.8293457 18.0820312,6.07910156 17.9033203,6.28417969 C17.7011719,6.51855469 17.4667969,6.69287109 17.2001953,6.80712891 C16.9335938,6.92138672 16.6347656,6.97851562 16.3037109,6.97851562 C16.0283203,6.97851562 15.7661133,6.92651367 15.5170898,6.82250977 C15.2680664,6.71850586 15.046875,6.56689453 14.8535156,6.36767578 C14.6630859,6.17138672 14.5114746,5.93188477 14.3986816,5.64916992 C14.2858887,5.36645508 14.2294922,5.04931641 14.2294922,4.69775391 C14.2294922,4.02099609 14.4265137,3.46728516 14.8205566,3.03662109 C15.2145996,2.60595703 15.730957,2.390625 16.3696289,2.390625 C16.9760742,2.390625 17.4763184,2.5949707 17.8703613,3.00366211 C18.2644043,3.41235352 18.4614258,3.95654297 18.4614258,4.63623047 Z M17.5517578,4.64501953 C17.5517578,4.42529297 17.5297852,4.19311523 17.4858398,3.94848633 C17.4418945,3.70385742 17.3759766,3.49658203 17.2880859,3.32666016 C17.1943359,3.14501953 17.0712891,2.99926758 16.9189453,2.8894043 C16.7666016,2.77954102 16.5805664,2.72460938 16.3608398,2.72460938 C16.1352539,2.72460938 15.942627,2.78027344 15.782959,2.89160156 C15.623291,3.00292969 15.4936523,3.15527344 15.394043,3.34863281 C15.300293,3.52734375 15.234375,3.73095703 15.1962891,3.95947266 C15.1582031,4.18798828 15.1391602,4.40917969 15.1391602,4.62304688 C15.1391602,4.90429688 15.1618652,5.16430664 15.2072754,5.40307617 C15.2526855,5.6418457 15.3251953,5.85498047 15.4248047,6.04248047 C15.5244141,6.22998047 15.6496582,6.37719727 15.8005371,6.48413086 C15.951416,6.59106445 16.1381836,6.64453125 16.3608398,6.64453125 C16.7270508,6.64453125 17.0170898,6.46728516 17.230957,6.11279297 C17.4448242,5.75830078 17.5517578,5.26904297 17.5517578,4.64501953 Z" id="Shape"></path>
            <path d="M22.7416992,6.10400391 C22.5629883,6.37646484 22.3520508,6.58886719 22.1088867,6.74121094 C21.8657227,6.89355469 21.5727539,6.96972656 21.2299805,6.96972656 C21.027832,6.96972656 20.8308105,6.94189453 20.638916,6.88623047 C20.4470215,6.83056641 20.277832,6.74267578 20.1313477,6.62255859 C19.9760742,6.49365234 19.8574219,6.34204102 19.7753906,6.16772461 C19.6933594,5.9934082 19.6523438,5.76416016 19.6523438,5.47998047 L19.6655273,3.42773438 C19.6655273,3.27539062 19.6340332,3.1574707 19.5710449,3.07397461 C19.5080566,2.99047852 19.3945312,2.94873047 19.2304688,2.94873047 C19.1601562,2.94873047 19.0817871,2.95385742 18.9953613,2.96411133 C18.9089355,2.97436523 18.8452148,2.98095703 18.8041992,2.98388672 L18.8041992,2.70263672 C18.909668,2.65869141 19.0539551,2.60668945 19.2370605,2.54663086 C19.420166,2.48657227 19.5732422,2.45654297 19.6962891,2.45654297 C19.9951172,2.45654297 20.2060547,2.53564453 20.3291016,2.69384766 C20.4521484,2.85205078 20.512207,3.10986328 20.5092773,3.46728516 L20.4960938,5.29980469 C20.4902344,5.58691406 20.5209961,5.80664062 20.5883789,5.95898438 C20.6557617,6.11132812 20.7363281,6.22558594 20.8300781,6.30175781 C20.9179688,6.375 21.019043,6.421875 21.1333008,6.44238281 C21.2475586,6.46289062 21.355957,6.47314453 21.4584961,6.47314453 C21.8510742,6.47314453 22.171875,6.29663086 22.4208984,5.94360352 C22.6699219,5.59057617 22.7944336,5.14160156 22.7944336,4.59667969 C22.7944336,4.36230469 22.762207,4.16381836 22.6977539,4.0012207 C22.6333008,3.83862305 22.5234375,3.69433594 22.3681641,3.56835938 C22.2539062,3.47460938 22.1557617,3.37060547 22.0737305,3.25634766 C21.9916992,3.14208984 21.9506836,3.01025391 21.9506836,2.86083984 C21.9506836,2.74658203 21.9968262,2.64697266 22.0891113,2.56201172 C22.1813965,2.47705078 22.2978516,2.43457031 22.4384766,2.43457031 C22.6083984,2.43457031 22.7490234,2.48803711 22.8603516,2.5949707 C22.9716797,2.7019043 23.0551758,2.83300781 23.1108398,2.98828125 C23.1665039,3.14648438 23.2060547,3.31347656 23.2294922,3.48925781 C23.2529297,3.66503906 23.2646484,3.85546875 23.2646484,4.06054688 C23.2646484,4.43847656 23.2199707,4.80981445 23.1306152,5.17456055 C23.0412598,5.53930664 22.9116211,5.84912109 22.7416992,6.10400391 Z" id="Path"></path>
        </g>
    </g>
</svg>