<?xml version="1.0" encoding="UTF-8"?>
<svg width="32px" height="32px" viewBox="0 0 32 32" version="1.1" xmlns="http://www.w3.org/2000/svg" xmlns:xlink="http://www.w3.org/1999/xlink">
    <title>ic_vocab</title>
    <g id="ic_vocab" stroke="none" stroke-width="1" fill="none" fill-rule="evenodd">
        <rect id="Rectangle" stroke="#000000" stroke-width="2" x="2" y="2" width="28" height="28" rx="5"></rect>
        <g id="Group" transform="translate(4.667969, 6.349609)">
            <g id="א" fill="#00C3FF" fill-rule="nonzero">
                <path d="M4.40039062,6.75585938 L4.2421875,6.75585938 C4.21875,6.45507812 4.1171875,6.203125 3.9375,6 L1.39453125,3.08203125 C0.9609375,3.30078125 0.744140625,3.58203125 0.744140625,3.92578125 C0.744140625,4.19140625 0.8828125,4.53320312 1.16015625,4.95117188 C1.48046875,5.42773438 1.640625,5.80664062 1.640625,6.08789062 C1.640625,6.46289062 1.49804688,6.65039062 1.21289062,6.65039062 L0.10546875,6.65039062 L0.10546875,6.4921875 C0.33984375,6.4296875 0.45703125,6.29492188 0.45703125,6.08789062 C0.45703125,5.95898438 0.3828125,5.703125 0.234375,5.3203125 C0.0859375,4.94140625 0.01171875,4.6484375 0.01171875,4.44140625 C0.01171875,3.8125 0.3984375,3.27734375 1.171875,2.8359375 L0.451171875,2.02148438 C0.150390625,1.67773438 0,1.3203125 0,0.94921875 C0,0.61328125 0.13671875,0.296875 0.41015625,0 L0.5625,0 C0.58203125,0.33984375 0.68359375,0.61328125 0.8671875,0.8203125 L3.0703125,3.32226562 C3.18359375,2.75976562 3.40039062,2.234375 3.72070312,1.74609375 C3.09960938,1.64453125 2.7890625,1.33203125 2.7890625,0.80859375 C2.7890625,0.5 2.86914062,0.23046875 3.02929688,0 L3.18164062,0 C3.24414062,0.2421875 3.39453125,0.392578125 3.6328125,0.451171875 L4.13671875,0.568359375 C4.578125,0.673828125 4.79882812,0.921875 4.79882812,1.3125 C4.79882812,1.484375 4.78125,1.62304688 4.74609375,1.72851562 C4.6171875,1.76757812 4.40429688,1.78710938 4.10742188,1.78710938 C3.70117188,2.42773438 3.49804688,2.95117188 3.49804688,3.35742188 C3.49804688,3.65820312 3.6015625,3.92773438 3.80859375,4.16601562 L4.35351562,4.79296875 C4.65820312,5.140625 4.81054688,5.5 4.81054688,5.87109375 C4.81054688,6.20703125 4.67382812,6.50195312 4.40039062,6.75585938 Z" id="Path"></path>
            </g>
            <line x1="7.83203125" y1="1.15039062" x2="22.8320312" y2="1.15039062" id="Line" stroke="#000000" stroke-width="2" stroke-linecap="square"></line>
            <line x1="7.83203125" y1="4.15039062" x2="19.8320312" y2="4.15039062" id="Line" stroke="#000000" stroke-width="2" stroke-linecap="square"></line>
            <line x1="7.83203125" y1="7.15039062" x2="14.8320312" y2="7.15039062" id="Line" stroke="#000000" stroke-width="2" stroke-linecap="square"></line>
        </g>
        <g id="Group-2" transform="translate(3.197754, 18.000000)">
            <g id="ω" transform="translate(0.000000, 0.014160)" fill="#00C3FF" fill-rule="nonzero">
                <path d="M3.80859375,4.90673828 C3.44042969,5.74462891 2.87760417,6.16357422 2.12011719,6.16357422 C1.59114583,6.16357422 1.10555013,5.91918945 0.663330078,5.43041992 C0.221110026,4.94165039 0,4.23811849 0,3.31982422 C0,2.56656901 0.132242839,1.9519043 0.396728516,1.47583008 C0.661214193,0.999755859 1.00716146,0.634765625 1.43457031,0.380859375 C1.86197917,0.126953125 2.43115234,0 3.14208984,0 L3.14208984,0.234863281 C2.51578776,0.234863281 2.02913411,0.493001302 1.68212891,1.00927734 C1.3351237,1.52555339 1.16162109,2.25764974 1.16162109,3.20556641 C1.16162109,4.16617839 1.27482096,4.82421875 1.5012207,5.1796875 C1.72762044,5.53515625 1.99527995,5.71289062 2.30419922,5.71289062 C2.50309245,5.71289062 2.69669596,5.65152995 2.88500977,5.52880859 C3.07332357,5.40608724 3.20556641,5.27596029 3.28173828,5.13842773 C3.35791016,5.00089518 3.47428385,4.71842448 3.63085938,4.29101562 C3.36425781,3.73242187 3.23095703,3.14208984 3.23095703,2.52001953 C3.23095703,1.57633464 3.4235026,1.10449219 3.80859375,1.10449219 C4.1936849,1.10449219 4.38623047,1.54036458 4.38623047,2.41210938 C4.38623047,3.01302083 4.24658203,3.63932292 3.96728516,4.29101562 C4.27197266,5.23893229 4.70784505,5.71289062 5.27490234,5.71289062 C5.59228516,5.71289062 5.86629232,5.54679362 6.09692383,5.21459961 C6.32755534,4.8824056 6.44287109,4.25504557 6.44287109,3.33251953 C6.44287109,2.56233724 6.36775716,1.97306315 6.2175293,1.56469727 C6.06730143,1.15633138 5.84407552,0.836832682 5.54785156,0.606201172 C5.2516276,0.375569661 4.8898112,0.251790365 4.46240234,0.234863281 L4.46240234,0 C5.17333984,0 5.74251302,0.12906901 6.16992188,0.387207031 C6.59733073,0.645345052 6.94222005,1.00927734 7.20458984,1.47900391 C7.46695964,1.94873047 7.59814453,2.55598958 7.59814453,3.30078125 C7.59814453,4.23177083 7.38549805,4.94165039 6.96020508,5.43041992 C6.53491211,5.91918945 6.03873698,6.16357422 5.47167969,6.16357422 C4.69303385,6.16357422 4.13867188,5.74462891 3.80859375,4.90673828 Z" id="Path"></path>
            </g>
            <line x1="9.30224609" y1="0.5" x2="24.3022461" y2="0.5" id="Line" stroke="#000000" stroke-width="2" stroke-linecap="square"></line>
            <line x1="9.30224609" y1="3.5" x2="16.3022461" y2="3.5" id="Line" stroke="#000000" stroke-width="2" stroke-linecap="square"></line>
            <line x1="9.30224609" y1="6.5" x2="20.3022461" y2="6.5" id="Line" stroke="#000000" stroke-width="2" stroke-linecap="square"></line>
        </g>
    </g>
</svg>